Coordinates
version=1
nRows=9
nColumns=36
inDegrees=yes

Units are S.I. units (second, meters, Newtons, ...)
If the header above contains a line with 'inDegrees', this indicates whether rotational values are in degrees (yes) or radians (no).

endheader
time	pelvis_tilt	pelvis_list	pelvis_rotation	pelvis_tx	pelvis_ty	pelvis_tz	hip_flexion_r	hip_adduction_r	hip_rotation_r	knee_angle_r	knee_angle_r_beta	ankle_angle_r	subtalar_angle_r	mtp_angle_r	hip_flexion_l	hip_adduction_l	hip_rotation_l	knee_angle_l	knee_angle_l_beta	ankle_angle_l	subtalar_angle_l	mtp_angle_l	lumbar_extension	lumbar_bending	lumbar_rotation	arm_flex_r	arm_add_r	arm_rot_r	elbow_flex_r	pro_sup_r	arm_flex_l	arm_add_l	arm_rot_l	elbow_flex_l	pro_sup_l
      2.97916670	     -7.34732160	     -1.34310397	      0.09661244	     -0.00048505	      0.89400582	     -0.07960505	     37.09954644	     -4.47536364	     -0.16713776	     30.06980751	      0.52481715	     -1.95775511	     -8.01536703	     -7.49999987	     39.45071000	     -8.05058915	      2.37782713	     33.87902372	      0.59130051	     -5.43995554	     -3.17034411	     -7.49999987	    -13.96443865	     -3.18571109	     -5.79389860	    105.99914046	    -67.10840475	     39.31682380	    128.78163632	     79.50826832	     79.34751706	    -20.61692169	     31.24320380	    104.01165122	     75.04450188
      2.98333330	     -7.80636714	     -1.38923447	      0.00454331	      0.00300616	      0.88406460	     -0.08042536	     39.03620093	     -4.40593499	     -0.01047901	     33.53985282	      0.58538086	      1.68550101	     -8.89441253	     -7.49999987	     40.41968584	     -7.95442407	      2.11253483	     35.97336901	      0.62785373	     -0.90417698	     -3.74195006	     -7.49999987	    -13.71828092	     -3.30804031	     -4.83593302	    104.89291861	    -69.74353098	     36.80071556	    130.69209945	     82.52772904	     79.61540807	    -19.56777540	     31.60281042	    103.84378183	     79.62943194
      2.98750000	     -8.03480931	     -1.47734890	      0.06083266	      0.00638406	      0.87517012	     -0.08362727	     40.81054419	     -4.47441889	      0.39686600	     37.04861124	      0.64662025	      4.76613915	     -9.31987452	     -7.49999987	     41.35884180	     -7.72253916	      2.02962439	     38.21203897	      0.66692589	      2.69777558	     -4.92108336	     -7.49999987	    -13.59911727	     -2.84755765	     -5.13865682	    104.17099742	    -69.88825669	     36.58285076	    132.14085644	     82.10280934	     78.71253019	    -19.95760277	     30.96213879	    105.04822678	     79.47780571
      2.99166670	     -8.32279673	     -1.49247766	      0.19936454	      0.00846080	      0.86766138	     -0.08166141	     42.89088254	     -4.53552328	      0.77036292	     40.63366454	      0.70919123	      6.77699455	    -10.03645065	     -7.49999987	     42.63524395	     -7.62106955	      1.97049741	     40.56975890	      0.70807587	      5.09725038	     -6.03171057	     -7.49999987	    -13.69185032	     -2.61375929	     -5.36423433	    103.69699745	    -70.77334906	     36.02541730	    133.56898082	     82.11180631	     78.03048777	    -20.38132019	     30.55650102	    105.87920738	     79.69001338
      2.99583330	     -8.50502111	     -1.48099853	      0.33174271	      0.01234047	      0.86348939	     -0.08358313	     44.79139995	     -4.59209269	      1.25148462	     44.05066250	      0.76882910	      8.29785306	    -10.47186796	     -7.49999987	     43.85449181	     -7.39861572	      2.25400058	     42.87031674	      0.74822818	      6.86088414	     -7.07444994	     -7.49999987	    -14.09247278	     -2.43364264	     -5.44641042	    102.56807420	    -72.09392414	     35.34238018	    135.28635557	     82.09007169	     77.09546523	    -20.66769963	     29.91324685	    107.45383751	     79.95194523
      3.00000000	     -7.82695624	     -1.52075062	      0.35234681	      0.01579920	      0.86055145	     -0.08378118	     45.40996683	     -4.45543284	      1.72521587	     46.68110951	      0.81473906	      9.12259234	    -11.16815603	     -7.49999987	     44.11927291	     -7.29537047	      2.73719414	     45.09780622	      0.78710520	      8.03066016	     -8.20625049	     -7.49999987	    -15.35239779	     -2.21222609	     -5.44897640	    101.36269158	    -72.64485201	     35.52544612	    136.36493863	     82.10025925	     76.35898094	    -21.06605062	     29.55875975	    107.94363419	     80.01311236
      3.00416670	     -8.11146656	     -1.40012050	      0.36268988	      0.01847659	      0.85587527	     -0.08115890	     47.00863350	     -4.30670261	      2.33136070	     49.19776565	      0.85866300	      9.70122503	    -11.58165444	     -7.49999987	     45.16404965	     -7.14036692	      3.32593521	     46.73818651	      0.81573524	      8.53455586	     -8.88398115	     -7.49999987	    -15.35697617	     -2.98476857	     -6.00135004	     85.62360583	    -72.06759282	     20.11047514	    138.32338848	     82.06443823	     75.08026029	    -21.31226696	     29.35419406	    109.12495178	     82.42229150
      3.00833330	     -7.90831240	     -1.41170332	      0.27915553	      0.02004395	      0.85149436	     -0.08297372	     48.07732709	     -4.12941930	      2.90485996	     51.53633894	      0.89947880	      9.97482844	    -12.09023508	     -7.49999987	     46.09999117	     -7.05882895	      3.75705330	     49.00972975	      0.85538115	      9.01594822	    -10.05357108	     -7.49999987	    -16.17401357	     -2.91177965	     -6.19280513	     79.31578692	    -71.49259745	     14.75174738	    139.58124354	     83.59068295	     73.66777950	    -21.63172556	     28.55688031	    110.20700838	     83.26647496
      3.01250000	     -7.28876534	     -1.45014291	      0.31810001	      0.02293719	      0.84859487	     -0.08430355	     48.44713706	     -4.06721421	      3.35746707	     53.55491261	      0.93470956	     10.22942783	    -12.58193231	     -7.49999987	     46.59212698	     -6.83624743	      4.28421250	     51.12770532	      0.89234680	      9.41129069	    -10.79560673	     -7.49999987	    -17.63600603	     -2.50285618	     -6.42602343	     77.93899723	    -71.38816796	     15.11650258	    140.61078144	     83.62036635	     72.83366722	    -22.26005289	     28.13521008	    110.99695620	     83.26379656
